<svg xmlns="http://www.w3.org/2000/svg" viewBox="0 0 1119.9 564.29"><defs><style>.cls-1{isolation:isolate;}.cls-2{fill:#d7d7db;opacity:0.5;mix-blend-mode:multiply;}.cls-3{fill:#f4f5fc;}.cls-4{fill:#dddde6;}.cls-5{fill:#fff;}.cls-6{fill:#ccdfed;}.cls-7{fill:#4592c5;}.cls-8{fill:#74add3;}.cls-9{fill:#a2c9e2;}</style></defs><title>documentation</title><g class="cls-1"><g id="objects"><polygon class="cls-2" points="62.65 449.25 406.83 644.18 830.15 394.99 485.97 200.06 62.65 449.25"/><polygon class="cls-3" points="64.92 443.17 407.32 637.09 828.88 388.93 486.48 195.01 64.92 443.17"/><polygon class="cls-4" points="437.64 334.91 649.87 455.1 659.23 449.59 447.01 329.4 437.64 334.91"/><polygon class="cls-4" points="525.88 259.05 717.23 367.43 730.11 359.84 538.76 251.47 525.88 259.05"/><polygon class="cls-4" points="536.96 277.36 685.31 361.38 690.34 358.42 541.99 274.4 536.96 277.36"/><polygon class="cls-4" points="635.32 358.87 727.38 411 728.97 410.06 636.92 357.93 635.32 358.87"/><polygon class="cls-4" points="625.74 386.44 698.81 427.82 700.4 426.88 627.34 385.5 625.74 386.44"/><polygon class="cls-4" points="523.88 345.94 683.92 436.58 685.51 435.64 525.48 345.01 523.88 345.94"/><polygon class="cls-4" points="432.24 259.7 713.65 419.08 715.24 418.14 433.83 258.76 432.24 259.7"/><polygon class="cls-4" points="499.01 281.67 564.47 318.74 566.06 317.8 500.61 280.73 499.01 281.67"/><polygon class="cls-4" points="478.28 302.92 543.74 339.99 545.33 339.05 479.87 301.98 478.28 302.92"/><polygon class="cls-4" points="566.42 319.84 633.49 357.83 641.27 353.25 574.2 315.26 566.42 319.84"/><polygon class="cls-4" points="545.78 341.15 623.63 385.24 631.42 380.66 553.56 336.56 545.78 341.15"/><polygon class="cls-4" points="417.4 268.44 476.73 302.04 484.51 297.45 425.19 263.86 417.4 268.44"/><polygon class="cls-4" points="534.32 440.25 607.39 481.63 608.98 480.7 535.91 439.31 534.32 440.25"/><polygon class="cls-4" points="386.86 356.74 452.31 393.81 453.91 392.87 388.45 355.8 386.86 356.74"/><polygon class="cls-4" points="454.36 394.96 532.21 439.06 539.99 434.48 462.14 390.38 454.36 394.96"/><polygon class="cls-4" points="325.98 322.26 385.3 355.86 393.09 351.27 333.76 317.67 325.98 322.26"/><polygon class="cls-4" points="452.05 305.47 522.34 345.27 530.12 340.69 459.83 300.88 452.05 305.47"/><polygon class="cls-4" points="445.97 251.62 496.92 280.48 504.7 275.9 453.75 247.04 445.97 251.62"/><polygon class="cls-4" points="451.29 467.2 543.34 519.33 544.94 518.39 452.88 466.26 451.29 467.2"/><polygon class="cls-4" points="441.71 494.77 514.78 536.15 516.37 535.21 443.31 493.83 441.71 494.77"/><polygon class="cls-4" points="339.85 454.28 499.89 544.91 501.48 543.98 341.44 453.34 339.85 454.28"/><polygon class="cls-4" points="248.21 368.04 529.62 527.41 531.21 526.48 249.8 367.1 248.21 368.04"/><polygon class="cls-4" points="314.98 390 380.44 427.07 382.03 426.13 316.58 389.06 314.98 390"/><polygon class="cls-4" points="294.25 411.25 359.71 448.32 361.3 447.38 295.84 410.31 294.25 411.25"/><polygon class="cls-4" points="382.38 428.17 449.46 466.16 457.24 461.58 390.17 423.59 382.38 428.17"/><polygon class="cls-4" points="361.75 449.48 439.6 493.57 447.39 488.99 369.53 444.9 361.75 449.48"/><polygon class="cls-4" points="233.37 376.77 292.69 410.37 300.48 405.79 241.15 372.19 233.37 376.77"/><polygon class="cls-4" points="268.02 413.8 338.31 453.61 346.09 449.02 275.8 409.21 268.02 413.8"/><polygon class="cls-4" points="261.94 359.95 312.89 388.81 320.67 384.23 269.72 355.37 261.94 359.95"/><polygon class="cls-4" points="531.74 419.84 623.79 471.98 625.39 471.04 533.33 418.9 531.74 419.84"/><polygon class="cls-4" points="395.43 342.64 460.89 379.71 462.48 378.78 397.03 341.7 395.43 342.64"/><polygon class="cls-4" points="462.83 380.81 529.91 418.8 537.69 414.22 470.62 376.23 462.83 380.81"/><polygon class="cls-4" points="342.38 312.6 393.34 341.45 401.12 336.87 350.17 308.01 342.38 312.6"/><polygon class="cls-4" points="354.33 303.76 635.98 463.28 642.65 459.35 361 299.83 354.33 303.76"/><polygon class="cls-4" points="284.58 344.81 566.24 504.33 572.91 500.4 291.26 340.89 284.58 344.81"/><polygon class="cls-4" points="481.28 470.19 554.13 511.45 560.81 507.53 487.96 466.26 481.28 470.19"/><polygon class="cls-4" points="387.3 387.94 579.26 496.66 588.63 491.15 396.67 382.43 387.3 387.94"/><polygon class="cls-4" points="189.25 400.94 470.9 560.45 477.57 556.52 195.92 397.01 189.25 400.94"/><polygon class="cls-4" points="177.15 408.06 458.8 567.58 465.47 563.65 183.82 404.13 177.15 408.06"/><polygon class="cls-4" points="165.04 415.18 446.7 574.7 453.37 570.77 171.72 411.25 165.04 415.18"/><polygon class="cls-4" points="351.77 534.92 434.6 581.82 441.27 577.89 358.45 530.99 351.77 534.92"/><polygon class="cls-4" points="148.74 464.82 232.13 512.05 238.8 508.12 155.41 460.89 148.74 464.82"/><polygon class="cls-2" points="298.47 523.46 645.41 722.04 1078.75 469.63 731.81 271.06 298.47 523.46"/><polygon class="cls-5" points="301.39 518.43 646.52 715.98 1075.97 465.83 730.84 268.29 301.39 518.43"/><polygon class="cls-4" points="869.99 448.85 954.37 497.15 963.91 491.59 879.53 443.29 869.99 448.85"/><polygon class="cls-4" points="754.72 515.99 839.1 564.29 848.64 558.74 764.26 510.44 754.72 515.99"/><polygon class="cls-4" points="836.56 496.32 896.7 530.74 906.24 525.19 846.1 490.76 836.56 496.32"/><polygon class="cls-4" points="770.16 333.3 963.04 443.7 976.16 436.06 783.28 325.65 770.16 333.3"/><polygon class="cls-4" points="707.49 311.39 997.1 477.15 999 476.05 709.39 310.28 707.49 311.39"/><polygon class="cls-4" points="673.21 333.05 840.36 428.72 847.16 424.76 680.01 329.09 673.21 333.05"/><polygon class="cls-4" points="663.18 338.89 830.33 434.57 837.13 430.61 669.98 334.93 663.18 338.89"/><polygon class="cls-4" points="728.82 388.05 820.3 440.41 827.1 436.45 735.62 384.08 728.82 388.05"/><polygon class="cls-4" points="615.53 366.65 782.68 462.32 789.48 458.36 622.33 362.69 615.53 366.65"/><polygon class="cls-4" points="605.5 372.49 772.65 468.16 779.45 464.2 612.3 368.53 605.5 372.49"/><polygon class="cls-4" points="644.58 406.44 762.62 474 769.42 470.04 651.38 402.48 644.58 406.44"/><polygon class="cls-4" points="513.07 426.33 771.31 574.14 778.11 570.18 519.87 422.37 513.07 426.33"/><polygon class="cls-4" points="526.02 418.78 784.27 566.59 791.07 562.63 532.82 414.82 526.02 418.78"/><polygon class="cls-4" points="538.98 411.24 797.22 559.05 804.02 555.09 545.78 407.27 538.98 411.24"/><polygon class="cls-4" points="692.18 543.09 758.98 581.32 765.78 577.36 698.98 539.13 692.18 543.09"/><polygon class="cls-4" points="481.3 444.83 739.55 592.64 746.35 588.68 488.1 440.87 481.3 444.83"/><polygon class="cls-4" points="468.98 452.01 727.22 599.82 734.02 595.86 475.77 448.05 468.98 452.01"/><polygon class="cls-4" points="456.65 459.19 714.89 607 721.69 603.04 463.45 455.23 456.65 459.19"/><polygon class="cls-4" points="497.68 496.92 702.56 614.18 709.36 610.22 504.48 492.95 497.68 496.92"/><polygon class="cls-4" points="423.95 478.24 682.19 626.05 688.99 622.09 430.75 474.28 423.95 478.24"/><polygon class="cls-4" points="411.62 485.42 669.86 633.23 676.66 629.27 418.42 481.46 411.62 485.42"/><polygon class="cls-4" points="399.29 492.6 657.53 640.41 664.33 636.45 406.09 488.64 399.29 492.6"/><polygon class="cls-4" points="503.19 566.31 645.21 647.59 652.01 643.63 510 562.35 503.19 566.31"/><polygon class="cls-4" points="386.11 540.63 470.17 588.74 476.97 584.78 392.91 536.67 386.11 540.63"/><path class="cls-4" d="M811.68,563.4c-1.42.83-1.41,2.16,0,3a5.7,5.7,0,0,0,5.18,0c1.42-.83,1.41-2.17,0-3A5.71,5.71,0,0,0,811.68,563.4Z"/><path class="cls-6" d="M859.69,358.59l4.93,3.24c5.13,3.36,12.68,4.19,18,1.95l3.45-1.45c10.09-4.23,23.92-10,25.49-13.93a10.5,10.5,0,0,0,.32-2.43c.22-3.51.55-8.82,6.71-10.64,4.58-1.36,14.24.3,21.28,4.92s9.59,11,7.54,14c-2.75,4-10.83,4.28-16.18,4.43a35,35,0,0,0-3.69.22c-6,1-14.74,10.14-21.16,16.79l-2.19,2.26c-3.39,3.47-2.12,8.43,3,11.8L912.1,393l-2.36,1.55-4.94-3.24c-6.45-4.23-8-10.47-3.79-14.84l2.18-2.25c7.42-7.68,15.82-16.38,22.9-17.62a35.08,35.08,0,0,1,4.4-.29C935.35,356.15,942,356,944,353c1.32-1.95-.57-7.27-6.55-11.19s-14.08-5.16-17-4.28c-4.5,1.33-4.77,5.7-5,8.9a10.31,10.31,0,0,1-.42,2.89C913.17,354,900,359.51,888.3,364.4l-3.45,1.44c-5.88,2.5-14,2-20.3-1.15a21.52,21.52,0,0,1-2.29-1.31l-4.93-3.23Z"/><polygon class="cls-7" points="945.26 364.69 944.29 377.52 937.04 385.61 922.67 377.5 945.26 364.69"/><path class="cls-8" d="M849,362.71l7.71,4.53,14.5-.87-4.47,6.77,10.55,6.2,10.54,6.19,8.54-1.78,1.39,7.62,7.81,4.59a7.54,7.54,0,0,0,6.83,0l32.29-30.56c.85-.48.86-1.26,0-1.75l-60.33-35.47a3.36,3.36,0,0,0-3,0L849,358.76C847.12,359.84,847.09,361.61,849,362.71Z"/><polygon class="cls-9" points="878.7 330.67 941.92 368.03 943.61 366.43 880.47 329 878.7 330.67"/><path class="cls-6" d="M855.82,362.83l5.17,3c5.37,3.08,13,2.38,18-1.67l3.32-2.64c9.7-7.7,23-18.25,24.24-23.57a16.92,16.92,0,0,0,.11-3.15c-.06-4.51-.16-11.32,5.82-15.05,4.46-2.78,14.2-2.91,21.58,1.32s10.42,11.68,8.62,16c-2.41,5.77-10.43,7.93-15.73,9.36a29.39,29.39,0,0,0-3.66,1.13c-5.84,2.7-13.85,16.27-19.7,26.19l-2,3.37c-3.09,5.18-1.43,11.18,3.95,14.26l5.17,3-2.22,2.51-5.17-3c-6.77-3.88-8.86-11.42-5-17.94l2-3.36c6.75-11.45,14.41-24.43,21.36-27.64a29.24,29.24,0,0,1,4.36-1.38c4.82-1.3,11.43-3.08,13.19-7.3,1.16-2.77-1.16-9.09-7.42-12.67s-14.42-3.28-17.3-1.48c-4.36,2.72-4.28,8.33-4.23,12.43a16.71,16.71,0,0,1-.18,3.76c-1.49,6.34-14.19,16.42-25.39,25.31l-3.31,2.63a21.27,21.27,0,0,1-20.29,3.24,18,18,0,0,1-2.39-1.13l-5.16-3Z"/><path class="cls-5" d="M854,360.89l5.17,3c5.38,3.08,13,2.38,18-1.67l3.32-2.64c9.7-7.7,23-18.25,24.23-23.57a16.7,16.7,0,0,0,.12-3.15c-.06-4.51-.16-11.32,5.82-15.05,4.46-2.77,14.2-2.91,21.57,1.32s10.42,11.68,8.63,16c-2.42,5.77-10.43,7.93-15.74,9.36a29.69,29.69,0,0,0-3.65,1.13c-5.85,2.7-13.86,16.28-19.71,26.19l-2,3.37c-3.09,5.19-1.43,11.18,4,14.27l5.16,3-2.22,2.51-5.17-3c-6.76-3.88-8.85-11.42-5-17.94l2-3.36c6.76-11.45,14.42-24.43,21.36-27.64a29.64,29.64,0,0,1,4.36-1.38c4.83-1.3,11.43-3.08,13.19-7.3,1.16-2.77-1.15-9.09-7.41-12.67s-14.43-3.28-17.3-1.48c-4.37,2.72-4.29,8.33-4.23,12.43a16.62,16.62,0,0,1-.19,3.76c-1.48,6.34-14.18,16.42-25.39,25.31l-3.3,2.63a21.27,21.27,0,0,1-20.29,3.24,16.86,16.86,0,0,1-2.39-1.13l-5.17-3Z"/><path class="cls-7" d="M895.83,390.26l11.68,6.87a3.6,3.6,0,0,0,3.87-.22l2.64-2.2a1.57,1.57,0,0,0-.37-2.72L902,385.13a3.62,3.62,0,0,0-3.88.21l-2.64,2.21A1.57,1.57,0,0,0,895.83,390.26Z"/><path class="cls-7" d="M848.57,362.48l12.12,7.12a2.79,2.79,0,0,0,3.28-.31l2.63-2.72a1.58,1.58,0,0,0-.52-2.55L854,356.9a2.79,2.79,0,0,0-3.28.31l-2.63,2.72A1.59,1.59,0,0,0,848.57,362.48Z"/><path class="cls-7" d="M866.84,373.22l21.07,12.39.16-4.88a2.57,2.57,0,0,0-1.43-2.23l-10-5.88a5,5,0,0,0-3.3-.55Z"/></g></g></svg>